<svg xmlns="http://www.w3.org/2000/svg" fill="none" viewBox="0 0 250 250 ">
    <path d="m 62.281271,207.35023 c -1.305684,-1.33119 -2.625167,-2.8821 -2.932188,-3.44646 -0.307018,-0.56434 -0.446139,-1.48606 -0.309159,-2.04826 0.13697,-0.56222 1.672882,-2.52411 3.413114,-4.3598 1.740232,-1.83571 7.758122,-8.00936 13.373099,-13.71926 5.614976,-5.70992 15.245949,-15.53278 21.402186,-21.82863 6.156237,-6.29583 12.184767,-12.51087 13.396727,-13.81121 1.212,-1.30035 9.09393,-9.38989 17.51541,-17.9768 8.42151,-8.58692 17.71831,-18.00947 20.6596,-20.93903 2.94129,-2.92953 5.95832,-5.92568 6.70452,-6.65807 0.74617,-0.73238 4.79582,-4.903374 8.9992,-9.268839 4.20336,-4.36549 10.39731,-10.735548 13.76433,-14.155688 5.63304,-5.72195 6.2001,-6.17823 7.10194,-5.714602 0.53904,0.27711 1.67471,0.903854 2.52371,1.392747 0.84899,0.488919 2.51377,1.830054 3.69951,2.980317 1.18575,1.150264 2.85774,3.148768 3.71557,4.441134 0.85783,1.292367 1.73242,2.456521 1.94355,2.586998 0.21113,0.130603 0.0415,0.783342 -0.37661,1.450776 -0.41826,0.66746 -2.25853,2.600008 -4.08949,4.294577 -1.83098,1.694594 -3.43083,3.188602 -3.55522,3.320036 -0.12431,0.131358 -1.72474,1.637194 -3.55631,3.346106 -1.83158,1.708887 -6.58863,6.176778 -9.86898,9.279968 -4.37996,4.14344 -8.70742,8.34388 -13.10248,12.46973 -1.58516,1.46477 -3.8042,3.55016 -4.93119,4.63419 -1.12701,1.08401 -3.34741,3.16848 -4.93425,4.63214 -1.58684,1.46366 -5.55806,5.1708 -8.8249,8.23811 -3.26683,3.06728 -6.98839,6.5756 -8.27011,7.79625 -1.28173,1.22065 -5.30022,5.04717 -8.92998,8.50337 -3.62976,3.45622 -7.59828,7.2387 -8.81893,8.40555 -1.22065,1.16682 -4.74301,4.45802 -7.82743,7.31372 -3.08445,2.85573 -5.99352,5.56485 -6.46463,6.0203 -0.47112,0.45543 -3.839879,3.65847 -7.486146,7.11784 -3.646267,3.4594 -7.32867,6.87181 -8.183126,7.58311 -0.854456,0.71132 -4.449806,4.1379 -7.989678,7.61461 -3.539872,3.47671 -6.935502,6.58524 -7.545813,6.90782 -0.610337,0.32259 -1.770917,1.40943 -2.579096,2.4152 -0.808154,1.0058 -1.90673,2.10422 -2.441271,2.44095 -0.534567,0.33675 -1.388067,0.73583 -1.896714,0.88687 -0.71755,0.21314 -1.456788,-0.2678 -3.298765,-2.14577 z M 172.97652,94.268638 c 9.62137,-9.442401 12.71581,-12.735562 12.61691,-13.427104 -0.0939,-0.656689 -0.50827,-0.952673 -1.46265,-1.044749 -1.11614,-0.107704 -1.87027,0.37432 -4.66064,2.979059 -1.83096,1.709138 -3.62866,3.404286 -3.99485,3.766955 -0.36619,0.362669 -3.86167,3.841089 -7.76776,7.72979 -3.90606,3.8887 -7.86099,7.723871 -8.78873,8.522571 -1.12233,0.96623 -1.6422,1.75839 -1.55354,2.36716 0.078,0.53512 0.59392,1.04239 1.24291,1.22183 0.61034,0.16886 1.2246,0.32676 1.36504,0.3511 0.14042,0.0252 5.99192,-5.58564 13.00331,-12.466612 z M 181.46756,209.297 c -0.2441,-0.229 -1.66573,-1.56724 -3.15911,-2.97393 -1.49338,-1.40671 -5.77502,-5.4539 -9.51475,-8.99377 -3.73972,-3.53987 -7.18495,-6.80877 -7.65605,-7.2642 -0.47111,-0.45545 -3.38021,-3.16457 -6.46463,-6.0203 -3.08445,-2.8557 -6.60678,-6.14358 -7.82743,-7.30635 -1.22065,-1.16279 -5.19133,-4.94527 -8.82376,-8.40555 -3.6324,-3.46025 -7.42482,-7.07016 -8.42757,-8.02197 -1.38691,-1.31648 -1.78826,-2.00689 -1.67721,-2.88517 0.0841,-0.66515 0.92827,-1.86635 1.99144,-2.83366 1.015,-0.92349 2.79163,-2.57135 3.94803,-3.66192 1.15643,-1.0906 2.36571,-1.98288 2.68731,-1.98288 0.3216,0 1.47272,0.57068 2.55806,1.26816 1.08536,0.69748 7.46626,6.91366 14.17982,13.8137 6.71357,6.90005 15.00287,15.36929 18.42067,18.82056 3.41782,3.45127 8.8608,8.99304 12.0955,12.31507 4.22598,4.34005 5.88129,6.33913 5.88129,7.10267 0,0.68107 -0.91641,2.04319 -2.55225,3.79355 -1.40374,1.50201 -2.98854,2.94823 -3.5218,3.21382 -1.21473,0.60502 -1.57959,0.54533 -2.13756,0.0226 z m -71.24139,-67.62424 c -0.61031,-0.27127 -2.02424,-1.39204 -3.14204,-2.49064 -1.11781,-1.09858 -5.09106,-4.89367 -8.829453,-8.43354 -3.738394,-3.5399 -7.841042,-7.43487 -9.116976,-8.65552 -1.275934,-1.22065 -5.090566,-4.816 -8.47696,-7.98968 -3.38642,-3.17368 -7.856971,-7.37714 -9.934567,-9.34104 -2.077595,-1.96391 -5.251426,-4.960032 -7.052961,-6.658098 -1.801522,-1.698042 -5.496754,-5.223746 -8.211622,-7.834902 -3.802785,-3.65754 -4.834214,-4.89072 -4.492256,-5.371033 0.24412,-0.342915 0.968154,-1.40236 1.608945,-2.354378 0.64079,-0.951993 2.474621,-2.929359 4.075178,-4.394152 1.600558,-1.464768 3.578495,-3.193308 4.395413,-3.841215 1.050029,-0.83279 1.826767,-1.112719 2.650478,-0.955265 0.801024,0.152999 5.720417,4.890997 15.740819,15.159948 8.016578,8.215462 18.69981,19.131795 23.740462,24.258535 5.04067,5.12671 11.18065,11.41858 13.6444,13.98196 2.46376,2.56334 4.48368,4.8621 4.48874,5.10831 0.005,0.24611 -1.93828,2.44341 -4.31856,4.88259 -2.38024,2.43921 -4.62735,4.65685 -4.99354,4.92812 -0.48829,0.36171 -0.96168,0.36171 -1.7755,0 z M 90.508908,104.67044 C 90.354902,104.18544 84.822852,98.519252 78.215317,92.078885 71.607758,85.638517 65.732456,80.18497 65.159086,79.959875 c -0.717411,-0.28164 -1.250639,-0.236545 -1.709954,0.144695 -0.545758,0.452959 -0.572102,0.770357 -0.144494,1.740897 0.287634,0.652814 2.823163,3.537808 5.634476,6.411101 2.811338,2.873293 5.411145,5.503599 5.777337,5.845079 0.366192,0.341506 3.26246,3.103572 6.43614,6.137913 3.17368,3.03435 6.264169,5.84703 6.867736,6.25036 1.031161,0.6891 1.147823,0.68294 1.932926,-0.10217 0.53502,-0.53504 0.73485,-1.15265 0.555655,-1.71731 z M 1.7153694,125.59642 c -0.5929103,-0.59292 -0.7059486,-1.18818 -0.4900836,-2.58088 0.1543079,-0.99563 0.761421,-2.80892 1.3491198,-4.02957 0.5876963,-1.22065 1.2042006,-2.71871 1.3700111,-3.32905 1.175765,-1.85997 1.6052855,-4.28977 2.9288156,-6.03497 0.2465102,-0.15249 0.8279103,-1.10391 1.291974,-2.11458 3.6786587,-8.011493 6.9542397,-11.198309 8.1729397,-13.469263 0.866563,-1.658835 2.230872,-3.914896 3.031799,-5.013472 0.800924,-1.098576 1.846689,-2.633904 2.323919,-3.411811 0.47723,-0.777931 1.749246,-2.675475 2.826706,-4.216793 1.077458,-1.541293 3.324556,-4.46343 4.993555,-6.493616 1.668997,-2.03016 3.056694,-4.027582 3.083773,-4.438692 0.02708,-0.411136 0.0091,-2.097853 -0.04006,-3.748309 -0.08229,-2.765212 0.0338,-3.186237 1.478525,-5.362804 0.862297,-1.299111 2.454525,-3.088624 3.538284,-3.976675 1.083756,-0.888051 3.121262,-2.045209 4.527787,-2.571472 1.927749,-0.721261 3.136414,-0.897034 4.909599,-0.714039 1.725156,0.178164 2.750081,0.04001 3.844416,-0.517958 0.820678,-0.418408 2.111482,-1.201749 2.868456,-1.74077 0.756972,-0.538997 1.516388,-0.980003 1.687589,-0.980003 0.171193,0 0.870035,-0.449435 1.552966,-0.998723 0.682928,-0.549288 2.276472,-1.597938 3.541208,-2.330321 1.264736,-0.732384 2.532489,-1.541872 2.817229,-1.79885 0.284743,-0.256979 2.714884,-1.669128 5.400299,-3.138123 2.685416,-1.46897 5.1822,-2.819894 5.548392,-3.002034 0.366192,-0.18219 1.664522,-0.916285 2.88517,-1.631482 1.220648,-0.715171 3.249626,-1.789941 4.508877,-2.388375 6.79261,-3.03771 13.857432,-7.55496 21.275385,-8.932244 1.22374,-0.183448 2.46128,-0.105942 3.12396,0.19603 2.5122,2.074053 -5.69838,5.606863 -7.380488,6.4683 -0.854456,0.400441 -2.552271,1.306937 -3.772919,2.014433 -1.220623,0.707496 -2.718709,1.540764 -3.32902,1.851695 -0.610337,0.310931 -1.727761,1.021523 -2.483195,1.57909 -2.816092,2.078393 -7.406045,3.796193 -17.843519,12.012237 -1.637093,1.288643 -4.374725,3.47593 -6.083637,4.860625 -1.70891,1.38472 -3.800107,3.426355 -4.64711,4.53701 -1.319103,1.729723 -1.528159,2.330045 -1.457434,4.185237 0.04542,1.191231 0.471029,2.911166 0.945815,3.822066 0.833004,1.598138 0.83545,1.698569 0.06986,2.865643 -0.436372,0.66522 -1.367442,1.561222 -2.069042,1.99113 -0.7016,0.429908 -2.718824,2.237314 -4.482718,4.016486 -1.763891,1.779171 -3.317806,3.583708 -3.453138,4.010118 -0.135334,0.426385 -0.81605,0.889259 -1.512701,1.028594 -0.69665,0.13941 -2.038998,0.04454 -2.982997,-0.210374 -0.943998,-0.255016 -1.906115,-0.644837 -2.138037,-0.866284 -0.231915,-0.221446 -1.007315,-0.40263 -1.723095,-0.40263 -0.715778,0 -1.980147,0.41949 -2.809706,0.932189 -0.829558,0.512674 -2.350558,1.661201 -3.38,2.552246 -1.029439,0.891045 -2.674074,2.419051 -3.654742,3.39558 -0.980668,0.976528 -3.278346,3.43788 -5.105951,5.469727 -1.827606,2.031822 -4.077995,4.527272 -5.000863,5.545447 -0.05624,0.06206 -5.919279,7.369914 -10.231177,14.340874 -2.9296082,3.7426 -4.5813597,8.44532 -7.5609143,12.09264 -1.4176145,1.374 -1.5322584,1.40827 -2.2638949,0.67665 z M 43.016317,64.981639 c 1.333654,-1.261313 2.542455,-2.761991 2.686227,-3.334807 0.143764,-0.572817 0.01485,-1.338518 -0.286389,-1.701539 -0.301283,-0.363022 -1.105795,-0.660037 -1.787807,-0.660037 -0.956485,0 -1.810146,0.62999 -3.733384,2.755247 -1.37135,1.515373 -2.434985,3.058377 -2.363636,3.428847 0.07134,0.370495 0.62731,0.925344 1.23547,1.233054 0.608162,0.307685 1.267511,0.562373 1.465223,0.565997 0.197716,0.0025 1.450643,-1.025448 2.784296,-2.286762 z M 245.09081,125.57209 c -0.40595,-0.11022 -1.05142,-0.86047 -1.43437,-1.66749 -1.48095,-1.72361 -2.22269,-3.80674 -3.38418,-5.67963 -1.86752,-3.01134 -3.6663,-5.62388 -5.76206,-8.93315 0,-0.11198 -0.67106,-1.20097 -1.49127,-2.4198 -0.8202,-1.21882 -1.72851,-2.48728 -2.01845,-2.8188 -0.28995,-0.33151 -1.3316,-1.70133 -2.31477,-3.04405 -0.9832,-1.342724 -3.11417,-3.93936 -4.73549,-5.77032 -1.62131,-1.830984 -5.05371,-5.426344 -7.62757,-7.989687 -2.69266,-2.681692 -5.67927,-5.197122 -7.03377,-5.92407 -2.35402,-1.263403 -2.35402,-1.263403 -4.43476,-0.390828 -1.1444,0.479935 -2.75739,0.999025 -3.58444,1.153585 -1.3396,0.250385 -1.65443,0.103929 -2.88515,-1.340229 -0.75981,-0.89165 -2.79483,-3.039378 -4.52229,-4.772725 -1.72743,-1.733372 -3.7748,-3.682831 -4.54966,-4.332172 -0.77489,-0.649317 -1.40888,-1.555863 -1.40888,-2.014534 0,-0.458671 0.39948,-1.61749 0.88775,-2.575196 0.48824,-0.95768 0.88772,-2.288221 0.88772,-2.956763 0,-0.668542 -0.59395,-2.095613 -1.31992,-3.171289 -0.72597,-1.075677 -2.47373,-2.93331 -3.8839,-4.128064 -1.41016,-1.194754 -2.86352,-2.501792 -3.22972,-2.904548 -0.36621,-0.402755 -2.10877,-1.800938 -3.87239,-3.107096 -1.76362,-1.306156 -3.91905,-2.874199 -4.78989,-3.48451 -3.74324,-2.551936 -7.42482,-5.212384 -11.28224,-7.600546 -0.87078,-0.482652 -2.68184,-1.564871 -4.02456,-2.404959 -5.96768,-3.7337 -13.17375,-6.581026 -14.90911,-8.321026 -0.85647,-1.017874 -0.98458,-1.438043 -0.58517,-1.919287 0.28126,-0.338888 1.29189,-0.616149 2.24587,-0.616149 4.85486,-0.367028 10.1656,2.792069 24.89632,10.205158 2.01612,1.027663 4.66439,2.446858 5.88503,3.153775 1.22065,0.706918 3.01832,1.6993 3.99485,2.20528 0.9765,0.506005 2.87405,1.598994 4.21677,2.42889 1.34272,0.829896 2.7409,1.649147 3.10709,1.820567 0.36619,0.171369 1.19574,0.727049 1.84344,1.23479 0.64768,0.507742 2.21505,1.522394 3.48303,2.254778 1.26798,0.732409 2.83534,1.74452 3.48302,2.249192 0.64771,0.504672 1.83056,1.179631 2.6286,1.499898 0.85267,0.342235 2.21877,0.479356 3.31306,0.332572 1.25404,-0.168098 2.65389,0.02844 4.2868,0.60246 1.33356,0.468712 3.23831,1.401026 4.23273,2.071783 0.99444,0.670781 2.51135,1.921903 3.37091,2.78026 0.85957,0.858357 2.03683,2.597768 2.61614,3.865348 0.91558,2.003386 0.99782,2.585412 0.62886,4.451401 -0.28619,1.447454 -0.27087,2.508057 0.0471,3.256169 0.25934,0.610236 1.47025,2.325037 2.6909,3.810691 1.22065,1.485629 3.17532,3.976801 4.3437,5.535884 1.1684,1.559084 3.0126,4.133047 4.09822,5.719887 3.53456,5.540882 7.05161,10.977201 10.38219,16.64517 1.44202,2.4413 3.1625,5.38725 4.4857,8.21165 2.0139,4.29875 5.28698,7.61307 5.23313,13.24501 -0.0871,1.04198 -0.37201,1.6414 -0.80098,1.68508 -0.3662,0.0372 -0.99795,-0.0226 -1.40392,-0.13236 z M 209.85916,66.405087 c 0.49931,-0.551754 0.69345,-1.241635 0.53084,-1.886472 -0.14092,-0.559127 -1.0136,-1.85016 -1.93907,-2.868965 -0.92549,-1.018804 -2.24003,-1.991256 -2.92123,-2.16099 -0.87557,-0.218175 -1.48165,-0.08858 -2.06813,0.442138 -0.66852,0.605027 -0.75302,1.017723 -0.43524,2.12576 0.21691,0.75624 1.12995,1.990074 2.02905,2.741834 0.8991,0.751786 2.0518,1.609463 2.56153,1.905975 0.50976,0.296512 1.04566,0.546193 1.19093,0.554849 0.1452,0.0075 0.61834,-0.375729 1.05132,-0.854129 z" />
    <style>
        path { fill: #fff; }
        @media (prefers-color-scheme: dark) {
            path { fill: #ddd; }
        }
    </style>
</svg>
