<?xml version="1.0" encoding="UTF-8" standalone="no"?>
<svg
   fill="none"
   viewBox="0 0 250 250"
   version="1.1"
   id="svg1"
   sodipodi:docname="pickaxe.svg"
   width="250"
   height="250"
   inkscape:version="1.3 (0e150ed, 2023-07-21)"
   xmlns:inkscape="http://www.inkscape.org/namespaces/inkscape"
   xmlns:sodipodi="http://sodipodi.sourceforge.net/DTD/sodipodi-0.dtd"
   xmlns="http://www.w3.org/2000/svg"
   xmlns:svg="http://www.w3.org/2000/svg">
  <defs
     id="defs1" />
  <sodipodi:namedview
     id="namedview1"
     pagecolor="#ffffff"
     bordercolor="#000000"
     borderopacity="0.25"
     inkscape:showpageshadow="2"
     inkscape:pageopacity="0.0"
     inkscape:pagecheckerboard="0"
     inkscape:deskcolor="#d1d1d1"
     inkscape:zoom="0.472"
     inkscape:cx="248.94068"
     inkscape:cy="258.47458"
     inkscape:window-width="1312"
     inkscape:window-height="431"
     inkscape:window-x="270"
     inkscape:window-y="922"
     inkscape:window-maximized="0"
     inkscape:current-layer="svg1" />
  <g
     id="g1"
     transform="matrix(0.49998274,0,0,0.49998274,0.00431553,0.004315)">
    <path
       class="cls-1"
       d="m 12.254392,256.105 c 20.61,-35.34 41.55,-61.31 63.84,-78.96 3.36,-2.66 5.31,-2.97 6.48,-2.97 2.03,0 4.34,1.08 7.27,2.43 1.43,0.66 2.97,1.38 4.68,2.07 0.48,0.19 0.97,0.28 1.46,0.28 1.34,0 2.63,-0.69 3.35,-1.9 5.169998,-8.69 12.649998,-15.99 20.519998,-20.02 1.72,-0.88 2.53,-2.89 1.92,-4.72 -0.65,-1.91 -1.44,-3.65 -2.2,-5.31 -2.2,-4.81 -3,-6.9 -0.63,-10.49 4.94,-7.5 14.99,-15.26 23.06,-21.49 l 2.24,-1.73 c 15.72,-12.21 34,-23.78 55.9,-35.38 4.46,-2.36 8.92,-4.72 13.31,-6.75 1.85,-0.85 2.73,-2.99 2.01,-4.9 -0.58,-1.56 -2.06,-2.53 -3.65,-2.53 -0.36,0 -0.73,0.05 -1.09,0.16 -38.68,11.24 -74.07,33.1 -104.21,52.72 -2.59,1.68 -5.17,3.37 -7.709998,5.13 -2.31,-1.12 -4.82,-1.69 -7.5,-1.69 -11.82,0 -23.75,11.1 -27.05,21.05 -0.45,1.35 -0.74,3.47 0.95,12.74 -19.85,24.13 -37.93,51.25 -52.35,78.54 -4.4899999,8.51 -8.6199999,18.01 -12.6299999,29.05 -0.69,1.91 0.2,4.03 2.04,4.88 0.52,0.24 1.08,0.35 1.62,0.35 1.37,0 2.69,-0.72 3.4,-2 1.47,-2.64 2.9499999,-5.09 4.4199999,-7.63 -1.25,-0.91 -3.0199999,-1.3 -4.6299999,-1.86 0.72,-2.21 4.4099999,-1.14 5.1699999,0.93 z M 204.75439,70.575 c 0.2,0.29 0.43,0.54 0.54,0.95 -1.96,0.56 -5.45,1.45 -5.78,-1.04 -0.03,-0.22 -0.08,-0.43 -0.05,-0.71 2.18,-0.7 4.25,-0.66 5.29,0.8 z m -54.65,25.15 c -0.84,2.21 1.6,1.12 1.17,2.92 -1.94,0 -2.91,-0.98 -2.92,-2.92 h 1.74 z m -22.62,20.48 c -1.28,1.1 -3.71,-0.17 -3.5,-2.34 2.1,-0.15 4.03,-0.14 3.5,2.34 z m -0.58,4.66 c 0.21,3.13 -2.23,3.6 -5.25,3.5 0.12,-2.8 2.06,-3.77 5.25,-3.5 z m -18.46,23.51 c 2.25,-0.46 2.25,2.8 0,2.34 z m -34.969998,11.08 c -0.79,-0.18 -0.49,-1.46 -0.58,-2.33 h 1.74 c 0.67,1.84 -0.91,1.41 -1.16,2.33 z m 23.4,4.11 c -1.55,0 -3.33,0.21 -4.08,-0.59 0.31,-3.03 4.93,-4.19 4.08,0.59 z m -21.11,-18.89 8.43,-8.71 c 1.66,-1.72 4.4,-1.76 6.12,-0.1 1.72,1.66 1.76,4.4 0.1,6.12 l -8.43,8.71 c -1.66,1.72 -4.4,1.76 -6.12,0.1 -1.72,-1.66 -1.76,-4.4 -0.1,-6.12 z m -7.66,10.66 c 1.01,-0.76 3.59,-0.89 4.78,-1.12 -0.08,1.05 0.71,1.23 0.58,2.34 -1.24,-2.51 -4.01,-1.33 -5.25,0.58 -0.22,-0.24 -0.31,-0.44 -0.4,-0.63 -0.23,-0.5 -0.09,-0.88 0.29,-1.16 z m -34.92,52.84 c -0.02,-0.56 -0.72,-0.45 -1.16,-0.58 1.55,-2.43 1.33,1.72 2.92,1.16 0.32,1.3 -1.11,0.83 -1.17,1.75 0.73,0.83 2.01,1.1 3.5,1.16 -0.06,4.76 -5.31,1.17 -5.83,-0.58 -0.14,-1.7 1.1,-2.02 1.75,-2.92 z"
       id="path4" />
    <path
       class="cls-1"
       d="m 382.18439,417.765 -36.1,-36.87 c -0.28,0.08 -0.52,0.21 -0.87,0.22 v -1.11 l -7.49,-7.66 c -0.25,1.2 -3.79,1.02 -3.01,-0.56 h 2.46 l -60.61,-61.91 -21.67,20.44 111.18,104.88 c 0.72,0.68 1.68,1.06 2.67,1.06 0.06,0 0.11,0 0.16,0 1.05,-0.04 2.04,-0.51 2.74,-1.29 l 10.65,-11.88 c 1.37,-1.53 1.32,-3.86 -0.12,-5.33 z m -103.88,-102.66 c -0.85,-0.32 -3.02,0.68 -2.92,-0.58 -0.86,-2.22 2.61,-0.12 1.74,-2.34 1.96,-0.6 0.91,1.81 1.17,2.92 z m 23.18,31.03 c 1.64,-0.09 1.69,1.42 1.74,2.92 -2.51,0.2 -2.25,-1.45 -1.74,-2.92 z m 4.66,3.5 c -1.76,0.02 -1.45,-2.04 -1.74,-3.5 2.14,-0.74 2.86,2.91 1.74,3.5 z m 0.59,19.82 c 2.98,0.5 5.67,1.33 6.99,3.5 -3.21,0.55 -7.18,0.78 -6.99,-3.5 z m 5.24,-12.83 c 2.21,-0.84 1.12,1.6 2.92,1.16 -0.26,1.15 -4.09,1.06 -2.92,-1.16 z m 22.15,36.14 h -2.92 c 0.25,-0.91 1.83,-0.49 1.17,-2.32 0.85,0.5 2.26,0.46 1.74,2.32 z m 22.74,21.57 c -1.65,0.48 -1.51,-0.82 -2.92,-0.58 0.38,-0.59 1.35,-0.6 1.17,-1.75 h 1.74 v 2.33 z m 0,-9.33 c 1.75,0.39 2.27,2.02 2.34,4.09 -0.84,-1.3 -2.97,-1.32 -2.34,-4.09 z m 4.08,-1.74 c -0.46,-0.31 -0.94,-0.61 -1.74,-0.58 v -1.75 c 0.68,0.1 1.04,-0.13 1.16,-0.58 1.27,-0.1 0.27,2.06 0.58,2.92 z"
       id="path5" />
    <path
       class="cls-1"
       d="m 245.57439,278.225 -118.69,-121.23 c -0.81,2.09 -2.36,3.89 -4.5,4.98 -6.97,3.57 -13.64,10.1 -18.29,17.92 -1.07,1.79 -2.72,3.08 -4.599998,3.84 l 124.029998,117 22.04,-22.51 z m -127.73,-92.42 c -0.78,-0.18 -0.47,-1.46 -0.58,-2.34 h 2.33 c 0.92,2.29 -1.51,1.21 -1.75,2.34 z m 26.24,16.32 c -0.67,-1.83 0.91,-1.41 1.16,-2.33 0.79,0.18 0.48,1.46 0.58,2.33 z m 15.74,23.32 c 1.64,-0.09 1.68,1.43 1.74,2.92 -1.2,-0.35 -2.21,-0.9 -1.74,-2.92 z m 15.73,16.9 c -0.41,-1.37 -1.34,-3.69 1.17,-3.5 0.3,1.45 -0.02,3.52 1.75,3.5 -0.5,1.71 -1.47,-0.76 -2.93,0 z m 6.5,-14.96 c -1.34,1.37 -3.53,1.39 -4.9,0.05 l -26.66,-26.15 v 2.58 c -2.21,0.85 -1.12,-1.6 -2.92,-1.16 0.93,-0.51 1.02,-1.86 2.58,-1.75 l -23.69,-23.23 c -1.36,-1.34 -1.39,-3.53 -0.05,-4.9 1.34,-1.37 3.53,-1.39 4.9,-0.05 l 50.69,49.7 c 1.37,1.34 1.39,3.53 0.05,4.9 z m 26.15,33.04 c -1.54,0.17 -1.92,-0.8 -1.75,-2.34 h 2.33 c 0.24,1.22 -0.4,1.55 -0.58,2.34 z m 13.23,10.23 c 2.32,-0.38 3.56,0.32 3.5,2.34 -1.11,0.94 -4.32,0.45 -3.5,-2.34 z"
       id="path6" />
    <path
       class="cls-1"
       d="m 499.76439,261.445 c -4,-11.04 -8.13,-20.54 -12.63,-29.05 -6.15,-11.64 -13,-23.24 -20.34,-34.6 -0.67,1.09 -1.54,1.97 -2.67,2.59 v -2.92 h 2.46 c -9.8,-15.15 -20.5,-29.88 -31.8,-43.61 1.69,-9.28 1.4,-11.39 0.95,-12.74 -2.64,-7.95 -10.78,-16.53 -19.97,-19.7 v 1.23 c -1.83,0.67 -1.41,-0.91 -2.32,-1.16 0.08,-0.38 0.43,-0.5 0.86,-0.54 -1.86,-0.51 -3.73,-0.88 -5.61,-0.88 -2.68,0 -5.19,0.57 -7.5,1.69 -2.54,-1.76 -5.12,-3.45 -7.71,-5.13 -30.14,-19.61 -65.53,-41.47 -104.21,-52.72 -0.36,-0.1 -0.73,-0.16 -1.09,-0.16 -1.59,0 -3.07,0.97 -3.65,2.53 -0.71,1.91 0.16,4.04 2.01,4.9 4.39,2.03 8.85,4.39 13.31,6.75 21.9,11.6 40.19,23.17 55.9,35.38 l 2.24,1.73 c 8.07,6.23 18.12,13.99 23.06,21.49 2.36,3.59 1.57,5.69 -0.63,10.49 -0.76,1.66 -1.55,3.4 -2.2,5.31 -0.61,1.83 0.2,3.84 1.92,4.72 0.35,0.18 0.68,0.45 1.03,0.64 -0.02,-0.21 -0.12,-0.35 -0.07,-0.64 1.11,-0.94 4.33,-0.45 3.5,2.33 -0.28,-0.06 -0.59,-0.08 -0.9,-0.12 6.53,4.22 12.59,10.45 16.97,17.81 0.72,1.21 2.01,1.9 3.35,1.9 0.49,0 0.98,-0.09 1.46,-0.28 1.71,-0.69 3.25,-1.41 4.68,-2.07 2.93,-1.35 5.24,-2.43 7.27,-2.43 1.17,0 3.12,0.31 6.48,2.97 24.08,19.06 46.58,47.69 68.8,87.52 0.71,1.27 2.03,2 3.4,2 0.54,0 1.1,-0.11 1.62,-0.35 1.85,-0.85 2.73,-2.96 2.04,-4.88 z m -193.03,-181.17 v -2.33 c 1.65,-0.49 1.51,0.82 2.91,0.58 -1,0.55 -0.95,2.16 -2.91,1.75 z m 64.71,28.57 c -1.18,-1.15 -4.98,0.31 -4.09,-2.92 2.58,-0.24 4.82,-0.16 4.09,2.92 z m 19.25,12.63 c -1.37,0 -1.71,-1.01 -3.5,-0.58 0.26,-2.44 4.17,-3.28 3.5,0.58 z m 29.12,2.52 c 0.37,1 1.76,0.96 2.34,1.75 0.58,1.75 -1.3,1.04 -2.34,1.16 v -2.92 z m -18.04,33.62 h 2.92 c 0.1,2.1 -3.01,2.1 -2.92,0 z m 5.25,-13.41 c -1.7,-0.82 -3.95,-1.1 -3.51,-4.08 1.38,0 1.72,-1.01 3.51,-0.58 z m 15.14,15.16 c -2.33,0.38 -1.67,-2.22 -1.74,-4.08 1.04,0.9 2.25,1.64 1.74,4.08 z m 1.97,-12.57 c -1.72,1.66 -4.46,1.62 -6.12,-0.1 l -8.43,-8.71 c -1.66,-1.72 -1.62,-4.46 0.1,-6.12 1.72,-1.66 4.46,-1.62 6.12,0.1 l 8.43,8.71 c 1.66,1.72 1.62,4.46 -0.1,6.12 z m 8.53,13.73 c -1.31,-0.24 -1.86,-1.25 -2.92,-1.74 0.17,-2.08 4,-2.19 4.66,-0.58 0.1,1.45 -1.31,1.41 -1.74,2.32 z m 52.43,81.81 c -1.73,0.72 -3.72,1.17 -5.23,0.59 -0.54,-2.3 2.02,-1.47 1.16,-4.09 1.69,0.89 1.82,-0.02 4.07,0.59 z"
       id="path7" />
    <path
       class="cls-1"
       d="m 400.50439,183.745 c -1.88,-0.77 -3.53,-2.06 -4.6,-3.84 -0.35,-0.59 -0.78,-1.11 -1.15,-1.68 -1.06,0.42 -2.73,0.06 -2.33,-1.16 0.66,0.11 0.98,-0.12 1.3,-0.34 -4.45,-6.36 -10.12,-11.67 -16.1,-14.74 -2.14,-1.1 -3.69,-2.89 -4.5,-4.98 l -54.65,55.82 c 0.08,0.26 0.12,0.5 0.26,0.78 h -1.02 l -54.7,55.87 -45.5,46.48 -10.6,10.83 c -0.19,0.68 -0.4,1.25 -0.64,1.65 1.47,0.09 2.68,0.42 2.35,2.29 -0.95,-0.56 -2.2,-0.81 -2.7,-1.84 -0.42,0.45 -0.81,0.45 -1.05,-0.02 l -34.62,35.36 c 0.63,-0.12 2.79,0.64 3.58,0.57 -0.61,1.75 -1.68,2.63 -3.5,1.74 -0.21,-0.99 0.45,-1.09 1.16,-1.16 0,-0.57 -0.71,-0.46 -1.16,-0.58 -0.16,-0.17 -0.24,-0.3 -0.26,-0.39 l -52.24,53.36 c -1.44,1.47 -1.49,3.79 -0.12,5.33 l 10.65,11.88 c 0.7,0.78 1.69,1.25 2.74,1.29 0.06,0 0.11,0 0.16,0 0.99,0 1.95,-0.38 2.67,-1.06 l 8.77,-8.27 c -1.05,-0.34 -1.95,-0.86 -2.11,-2.1 1.41,-0.62 2.76,-0.41 2.88,1.37 l 92.97,-87.7 47.84,-45.13 z m -22.64,-4.35 c 0.78,0.97 2.26,1.24 1.74,3.5 -1.78,-0.43 -1.71,1.01 -3.5,0.58 -0.89,-2.84 1.7,-2.2 1.75,-4.08 z m -253.01,232.04 c 1.81,0.33 3.57,0.7 3.5,2.92 -1.1,-1.04 -4.08,-0.19 -3.5,-2.92 z m 29.73,-20.4 c -0.93,-0.44 0.14,-2.86 -1.74,-2.33 1.3,-1.62 2.86,-2.96 6.41,-2.33 0.58,3.7 -1.28,4.95 -4.67,4.67 z m 15.74,6.58 c -0.09,-2.65 -0.48,-2.29 0,-4.66 0.83,0.05 1.66,0.1 1.75,-0.58 2.63,0.66 0.96,6.13 -1.75,5.24 z m 8.17,-24.48 v -3.51 c 0.91,0.25 0.49,1.84 2.34,1.17 -0.82,0.74 -0.04,3.07 -2.34,2.33 z m 3.5,0.58 c 1.68,-0.13 2.96,0.15 3.5,1.16 0.16,2.34 -4.77,1.32 -3.5,-1.16 z m 13.99,-8.17 c -1.53,0.17 -1.91,-0.8 -1.74,-2.33 2.05,-0.44 2.6,1.53 1.74,2.33 z m 19.64,-26.66 c -1.64,0.08 -1.68,-1.43 -1.74,-2.92 h 1.74 z m 2.34,-20.99 c 0.84,0.32 3.01,-0.68 2.91,0.58 0.66,2.01 -4.24,1.73 -2.91,-0.58 z m 15.34,18.34 c -0.42,-1.8 -0.42,-1.12 0,-2.92 h 1.74 c -0.07,1.48 -0.11,2.99 -1.74,2.92 z m 6.99,-25.65 c 1.32,-2.63 6.99,-0.18 6.41,2.92 -3.07,-0.05 -3.49,-2.73 -6.41,-2.92 z m 6.81,-4.93 h -2.92 c 0.38,-0.59 1.35,-0.6 1.17,-1.74 0.82,-0.05 1.65,-0.1 1.74,0.58 v 1.16 z m 11.85,7.25 c -2.21,0.85 -1.12,-1.6 -2.92,-1.16 0.26,-1.14 4.09,-1.05 2.92,1.16 z m 75.77,-69.95 c -0.67,-0.7 -0.66,-2.06 -0.58,-3.5 0.52,1.23 2.49,1.01 2.34,2.91 -0.47,0.31 -0.95,0.61 -1.75,0.59 z m 20.41,-58.31 v -1.16 c 0.46,0.34 0.7,1.12 0.7,1.93 l 12.86,-12.6 c 1.37,-1.34 3.56,-1.32 4.9,0.05 1.34,1.37 1.32,3.56 -0.05,4.9 l -50.69,49.7 c -1.37,1.34 -3.56,1.32 -4.9,-0.05 -1.34,-1.37 -1.32,-3.56 0.05,-4.9 l 35.6,-34.9 c -0.08,-0.02 -0.13,0 -0.21,-0.04 -0.14,-1.03 0.59,-2.92 -1.16,-2.33 -0.1,-1.27 2.06,-0.27 2.92,-0.59 z m -37.9,32.07 h 1.74 c 0.56,1.08 -1.74,1.96 0,2.33 -0.17,0.79 -1.45,0.48 -2.32,0.58 -0.48,-1.65 0.82,-1.51 0.58,-2.92 z m -3.5,2.33 h 1.74 v 2.34 h -2.32 c -0.08,-1.05 0.71,-1.23 0.58,-2.34 z m -24.35,35.44 c 1.77,-0.02 1.45,2.04 1.75,3.5 h -2.33 c -0.43,-1.78 0.59,-2.12 0.58,-3.5 z m -7.58,7.57 c -4.53,-1.55 -1.73,-4.35 0,0 z m -2.92,19.82 c 0.56,-0.59 1.15,-1.17 1.74,-1.74 1.89,-0.73 0.45,1.89 2.34,1.16 1.03,1.36 -2.93,-0.76 -4.08,0.58 z m 6.41,0 c 0.46,1.3 1.94,1.57 1.74,3.5 -1.94,0.19 -0.63,-2.86 -3.5,-1.74 -0.23,-1.4 2.65,0.32 1.75,-1.75 z"
       id="path8" />
  </g>
  <style
     id="style1">&#10;        path { fill: #fff; }&#10;        @media (prefers-color-scheme: dark) {&#10;            path { fill: #ddd; }&#10;        }&#10;    </style>
</svg>
